<?xml version="1.0" encoding="UTF-8"?>
<svg version="1.1" xmlns="http://www.w3.org/2000/svg" width="1424" height="952">
<path d="M0 0 C0 1.65 0 3.3 0 5 C-1.73056641 5.63228516 -1.73056641 5.63228516 -3.49609375 6.27734375 C-30.43886758 16.40678476 -52.41165867 34.51329875 -73.46826172 53.70361328 C-75.04080116 55.12996873 -76.62057987 56.54843694 -78.21142578 57.9543457 C-84.72250753 63.72128405 -90.91542408 69.76111816 -97.05102539 75.9206543 C-98.69239796 77.56741404 -100.33908819 79.20872095 -101.98632812 80.84960938 C-106.97603333 85.83612068 -111.88346477 90.85137763 -116.46801758 96.21850586 C-119.05602549 99.22801881 -121.78549394 102.10496353 -124.5 105 C-130.05292473 110.9557886 -135.45123157 117.01059746 -140.734375 123.20703125 C-141.76021453 124.40902671 -142.78626258 125.61084423 -143.8125 126.8125 C-144.58859619 127.72189331 -144.58859619 127.72189331 -145.38037109 128.6496582 C-148.58515078 132.39090101 -151.85217052 136.06123836 -155.1875 139.6875 C-158.37736844 143.16136309 -161.42048894 146.69910025 -164.375 150.375 C-168.24283546 155.17220935 -172.35109495 159.67204207 -176.56030273 164.16577148 C-179.65750846 167.49119755 -182.59607067 170.88701675 -185.4375 174.4375 C-189.46575518 179.46002506 -193.79477046 184.12743667 -198.20507812 188.81054688 C-201.42769343 192.25126217 -204.495015 195.74980464 -207.4375 199.4375 C-211.69353165 204.76740977 -216.31474194 209.69949254 -221.04077148 214.61108398 C-224.76767328 218.52367147 -227.95397526 222.53402387 -231 227 C-224.85510575 234.18565112 -218.69795747 241.3600354 -212.5 248.5 C-208.31668911 253.31923886 -204.14865559 258.15089539 -200 263 C-194.24871592 269.72103789 -188.45755773 276.40692353 -182.65869141 283.08691406 C-180.97187665 285.03243664 -179.28825982 286.98068401 -177.60546875 288.9296875 C-172.86721528 294.41410102 -168.12826311 299.88899211 -163.25 305.25 C-160.2992512 308.50010013 -157.49702373 311.82617333 -154.75 315.25 C-150.09341188 321.00946426 -145.07165823 326.37948699 -140.0078125 331.77734375 C-137.1552359 334.82061941 -134.3907379 337.92944134 -131.6640625 341.0859375 C-128.92168425 344.24031624 -126.1127431 347.33452792 -123.3125 350.4375 C-121.07882507 352.91265331 -118.85182284 355.39368312 -116.625 357.875 C-111.92688543 363.09422259 -107.18662643 368.27413723 -102.43261719 373.44238281 C-101.48750278 374.46996119 -100.54283148 375.49794731 -99.59863281 376.52636719 C-85.9555227 391.38472997 -72.13650635 406.05039837 -57.87084961 420.31445312 C-55.66557292 422.52194915 -53.46848751 424.7373981 -51.27148438 426.953125 C-43.81721887 434.43657358 -36.334928 441.49741788 -28 448 C-26.93586467 448.89689041 -25.87728568 449.80048153 -24.828125 450.71484375 C-11.72037993 462.01530882 2.4998923 472.4566004 20 475 C20 476.32 20 477.64 20 479 C0.7516974 486.23676493 -18.69728713 490.40564945 -39.3125 490.5625 C-40.48530518 490.57716309 -41.65811035 490.59182617 -42.86645508 490.60693359 C-54.90170325 490.46490962 -65.26377112 486.91955787 -75.75 481.1875 C-76.57000488 480.74519043 -77.39000977 480.30288086 -78.23486328 479.84716797 C-95.362188 470.4368883 -108.86340261 455.30461622 -122.54980469 441.58056641 C-124.88883481 439.23613323 -127.23322197 436.89715129 -129.578125 434.55859375 C-131.09146687 433.04459166 -132.60449881 431.5302797 -134.1171875 430.015625 C-134.80585907 429.32897766 -135.49453064 428.64233032 -136.20407104 427.93487549 C-140.1177155 424.00248941 -143.85667571 419.96923627 -147.47503662 415.76307678 C-149.71179344 413.17706451 -152.04454102 410.68941918 -154.375 408.1875 C-158.69969833 403.51225082 -162.75961671 398.67744591 -166.75390625 393.71484375 C-169.0883059 390.89326505 -171.51990598 388.19409288 -174 385.5 C-178.01605847 381.13230508 -181.79385454 376.63150764 -185.51953125 372.015625 C-188.44968382 368.45329778 -191.46762878 364.97529204 -194.5 361.5 C-198.23418958 357.21797219 -201.92459276 352.91667953 -205.5 348.5 C-210.09145794 342.83412411 -214.87098669 337.34209042 -219.66015625 331.84375 C-222.88054565 328.14512201 -226.06712644 324.41840447 -229.25 320.6875 C-232.67426605 316.67640744 -236.13727275 312.71344294 -239.6875 308.8125 C-243.53728722 304.57426579 -247.14639265 300.17376491 -250.74609375 295.72265625 C-252.95146704 293.05862647 -255.2317631 290.49211558 -257.5625 287.9375 C-261.94043926 283.13564057 -266.00189996 278.12018261 -270 273 C-273.74888398 274.24962799 -274.64619319 275.77896986 -277.0625 278.875 C-280.25774361 282.88329587 -283.51929973 286.73150392 -287 290.5 C-290.29331699 294.07792463 -293.44651321 297.71539666 -296.5 301.5 C-300.33835414 306.25739668 -304.39622359 310.75783918 -308.53515625 315.25390625 C-310.92707297 317.91875166 -313.19254884 320.64831825 -315.4375 323.4375 C-319.09635769 327.9739673 -322.94868963 332.258661 -326.91601562 336.52148438 C-329.8870119 339.73281228 -332.69953832 343.02618789 -335.4375 346.4375 C-339.34503814 351.29381089 -343.491703 355.86575074 -347.74511719 360.41650391 C-350.46420603 363.3270406 -353.12395393 366.26212667 -355.6875 369.3125 C-356.450625 370.199375 -357.21375 371.08625 -358 372 C-358.33 372 -358.66 372 -359 372 C-359.00423194 370.84015783 -359.00846388 369.68031567 -359.01282406 368.48532677 C-359.11495986 340.53737997 -359.22089761 312.58944917 -359.33111694 284.6415331 C-359.34487574 281.15197269 -359.35860445 277.66241216 -359.37231445 274.17285156 C-359.37504276 273.47855485 -359.37777106 272.78425813 -359.38058204 272.06892212 C-359.41855849 262.38892512 -359.45492523 252.70892329 -359.4899555 243.0289152 C-359.74428416 166.41900315 -359.74428416 166.41900315 -360.38385129 89.81163836 C-360.40967052 87.39698837 -360.43227451 84.98232965 -360.45385551 82.5676384 C-360.59372691 67.29546473 -360.74714798 52.13641396 -363 37 C-397.09150358 49.83583333 -418.20530779 71.60278856 -436 103 C-436.53657227 103.92159912 -436.53657227 103.92159912 -437.08398438 104.86181641 C-458.88113968 142.45897432 -468.03249699 186.17321517 -472 229 C-472.07202637 229.76940918 -472.14405273 230.53881836 -472.21826172 231.33154297 C-478.24172444 300.11405493 -469.58564742 380.12096485 -426 436 C-427.70227558 440.12396524 -430.60078102 443.24400239 -433.5 446.5625 C-434.03318848 447.17875244 -434.56637695 447.79500488 -435.11572266 448.42993164 C-439.27056632 453.21300546 -443.51449815 457.90895282 -447.796875 462.578125 C-450.60206078 465.66183986 -453.31058645 468.81516816 -456 472 C-461.08576572 470.46357365 -464.42772117 467.33728721 -468.3125 463.875 C-468.9818457 463.28388428 -469.65119141 462.69276855 -470.34082031 462.08374023 C-472.23670058 460.39935902 -474.12101119 458.70318322 -476 457 C-476.78246094 456.29230469 -477.56492187 455.58460938 -478.37109375 454.85546875 C-521.77028521 413.44127149 -539.71048824 346.33408543 -541.12548828 288.26416016 C-541.97796741 246.64756649 -538.90441633 205.83816699 -526 166 C-525.73606445 165.17532227 -525.47212891 164.35064453 -525.20019531 163.50097656 C-517.1279246 138.57048697 -505.94886837 114.86816219 -490 94 C-489.3296875 93.10539062 -488.659375 92.21078125 -487.96875 91.2890625 C-459.17840969 54.41528049 -416.70723415 31.8948859 -371 24 C-371 20.27066821 -371.77038717 19.74352905 -374.3125 17.125 C-384.41245365 7.58518242 -396.76506134 6.56174221 -410 5 C-410 3.35 -410 1.7 -410 0 C-356.21 0 -302.42 0 -247 0 C-246.67 1.32 -246.34 2.64 -246 4 C-247.88916266 5.88916266 -250.69645949 5.52570039 -253.2355957 5.84912109 C-262.44321965 7.05819421 -270.06095169 8.91588039 -278 14 C-278.60972656 14.37898438 -279.21945312 14.75796875 -279.84765625 15.1484375 C-285.13748976 18.96361154 -288.14351605 25.2870321 -291 31 C-290.45033066 31.10404144 -289.90066132 31.20808289 -289.33433533 31.3152771 C-283.6954139 32.46353466 -278.6467839 34.18807284 -273.37890625 36.4765625 C-271.767824 37.15423068 -270.15648798 37.83129579 -268.54492188 38.5078125 C-266.04942808 39.56500468 -263.55658806 40.62755064 -261.06811523 41.70117188 C-247.03443175 47.89059985 -247.03443175 47.89059985 -232 47.3125 C-229.35719312 45.57815799 -229.13013789 43.92407424 -228 41 C-227.11446845 39.36657084 -226.17623461 37.76060547 -225.1875 36.1875 C-224.70667969 35.39730469 -224.22585938 34.60710937 -223.73046875 33.79296875 C-222 32 -222 32 -219.36328125 31.67578125 C-217 32 -217 32 -216 33 C-214.79868209 44.03995327 -214.72742272 55.2271804 -214.46484375 66.3203125 C-214.42157701 68.07111971 -214.37816217 69.82192326 -214.33460999 71.57272339 C-214.2442851 75.23528284 -214.15635954 78.89789025 -214.07006836 82.56054688 C-213.98338127 86.23088963 -213.89326948 89.90111891 -213.79956055 93.57128906 C-213.16614789 118.38591425 -212.86403435 143.17727339 -213 168 C-214.98 168 -216.96 168 -219 168 C-221.76820773 162.26250408 -223.92488695 156.4452697 -225.91796875 150.40625 C-226.1815921 149.61154297 -226.44521545 148.81683594 -226.71682739 147.99804688 C-227.81618383 144.67618303 -228.91212971 141.35345439 -229.98657227 138.0234375 C-240.76245585 104.73477475 -264.01603032 67.31911749 -294 48 C-297.85638352 59.56915057 -296.13635206 74.150913 -296.11352539 86.23388672 C-296.1132428 88.3442993 -296.11340265 90.45471198 -296.1139679 92.56512451 C-296.11425308 98.25420542 -296.10840165 103.94326494 -296.10139394 109.63234091 C-296.09511375 115.59271223 -296.09455292 121.55308413 -296.09336853 127.51345825 C-296.09026892 138.7823575 -296.08207409 150.05124696 -296.07201904 161.32014191 C-296.06081524 174.1569804 -296.05533673 186.99381937 -296.05032361 199.83066154 C-296.03989025 226.22044643 -296.02231748 252.61022267 -296 279 C-294.79089966 277.58303833 -294.79089966 277.58303833 -293.55737305 276.13745117 C-292.47970396 274.87674847 -291.4019831 273.61609002 -290.32421875 272.35546875 C-289.79534058 271.7353894 -289.2664624 271.11531006 -288.72155762 270.47644043 C-285.4833784 266.69131347 -282.18889576 262.97490624 -278.8125 259.3125 C-275.60354956 255.81740111 -272.53934163 252.2571616 -269.5625 248.5625 C-265.90428985 244.02683557 -262.05257035 239.7429883 -258.08618164 235.48071289 C-255.09573 232.24806025 -252.26220993 228.93303234 -249.5 225.5 C-245.86500611 220.98222187 -242.0328971 216.72181484 -238.0859375 212.48046875 C-235.09558642 209.24788253 -232.26213671 205.93294134 -229.5 202.5 C-226.30068278 198.52370574 -222.97415055 194.73331702 -219.5 191 C-215.2104224 186.38998361 -211.19589103 181.62216764 -207.24609375 176.71484375 C-204.11832821 172.93432714 -200.78726117 169.35519125 -197.46484375 165.74609375 C-195.07292703 163.08124834 -192.80745116 160.35168175 -190.5625 157.5625 C-186.90428985 153.02683557 -183.05257035 148.7429883 -179.08618164 144.48071289 C-176.09573 141.24806025 -173.26220993 137.93303234 -170.5 134.5 C-167.30068278 130.52370574 -163.97415055 126.73331702 -160.5 123 C-156.2104224 118.38998361 -152.19589103 113.62216764 -148.24609375 108.71484375 C-145.9116941 105.89326505 -143.48009402 103.19409288 -141 100.5 C-136.10856434 95.1652545 -131.49494552 89.67185555 -127 84 C-126.2589502 83.07574219 -126.2589502 83.07574219 -125.50292969 82.1328125 C-106.11176801 58.10246951 -106.11176801 58.10246951 -99.66796875 28.765625 C-100.15108248 24.74157182 -101.29250338 21.67768503 -103 18 C-103.309375 17.21625 -103.61875 16.4325 -103.9375 15.625 C-105.31732496 13.51467948 -106.73501722 13.07094294 -109 12 C-109.57878906 11.68160156 -110.15757812 11.36320312 -110.75390625 11.03515625 C-116.27282317 8.06709942 -121.92824046 6.47329459 -128 5 C-128.5625 3.0625 -128.5625 3.0625 -129 1 C-127.36377568 -0.63622432 -125.50219793 -0.14548903 -123.24383545 -0.16494751 C-122.21474564 -0.17618149 -121.18565582 -0.18741547 -120.12538147 -0.19898987 C-118.98669113 -0.20631638 -117.84800079 -0.21364288 -116.67480469 -0.22119141 C-115.48300095 -0.2326973 -114.2911972 -0.24420319 -113.0632782 -0.25605774 C-109.78419808 -0.28655279 -106.50512068 -0.31254708 -103.22598553 -0.3362546 C-100.49004117 -0.35664375 -97.75412799 -0.38019615 -95.0182097 -0.40379179 C-88.56148663 -0.45947378 -82.10473779 -0.51018234 -75.64794922 -0.55761719 C-68.98773019 -0.60661277 -62.32760266 -0.66291972 -55.66747546 -0.72303832 C-49.95195392 -0.77442798 -44.23640906 -0.82175461 -38.52082562 -0.86572587 C-35.10625482 -0.89200494 -31.69171148 -0.91970427 -28.27718353 -0.9510994 C-24.4657319 -0.98495637 -20.65428929 -1.01215841 -16.84277344 -1.03759766 C-15.71218002 -1.04897263 -14.58158661 -1.0603476 -13.41673279 -1.07206726 C-12.37636368 -1.07766159 -11.33599457 -1.08325592 -10.26409912 -1.08901978 C-9.36296261 -1.09601709 -8.4618261 -1.10301441 -7.53338242 -1.11022377 C-4.92975485 -0.99694374 -2.53770159 -0.57795268 0 0 Z " fill="#B49A55" transform="translate(972,272)"/>
<path d="M0 0 C1.8658239 1.08864711 3.73171206 2.17718408 5.59765625 3.265625 C8.607585 5.02291276 11.61658018 6.78171646 14.62304688 8.54492188 C21.8671561 12.78548739 29.16521305 16.91856904 36.5 21 C45.72934554 26.13625662 54.87237091 31.40212604 63.98046875 36.75 C71.1052819 40.92243959 78.28546141 44.98495244 85.5 49 C94.72931402 54.13631389 103.87236973 59.40212535 112.98046875 64.75 C120.1052819 68.92243959 127.28546141 72.98495244 134.5 77 C143.72931402 82.13631389 152.87236973 87.40212535 161.98046875 92.75 C169.1052819 96.92243959 176.28546141 100.98495244 183.5 105 C192.72931402 110.13631389 201.87236973 115.40212535 210.98046875 120.75 C218.10528525 124.92244156 225.28553837 128.98481022 232.5 133 C241.65723315 138.09830924 250.7369317 143.31308055 259.77832031 148.61376953 C267.4079881 153.08278735 275.06977486 157.49361631 282.75 161.875 C283.6264769 162.37504547 283.6264769 162.37504547 284.5206604 162.88519287 C287.4919198 164.5800349 290.46363272 166.27407984 293.43554688 167.96777344 C298.71093295 170.97470744 303.98234438 173.98859617 309.25402832 177.00201416 C312.16918658 178.6682993 315.08460663 180.33412627 318 182 C319.16666792 182.66666448 320.33333459 183.33333114 321.5 184 C322.0775 184.33 322.655 184.66 323.25 185 C328.49999996 187.99999998 328.49999996 187.99999998 330.24993896 188.99996948 C331.41680407 189.66674664 332.58367419 190.33351503 333.75054932 191.00027466 C336.66422091 192.66517906 339.57780578 194.33023486 342.49121094 195.99560547 C348.37242547 199.35722456 354.2551123 202.71622363 360.140625 206.0703125 C365.97041911 209.39269078 371.79376729 212.72615984 377.61474609 216.06396484 C380.97389452 217.98507021 384.34019594 219.89318802 387.70703125 221.80078125 C407.97443675 233.35194583 407.97443675 233.35194583 416 241 C416.86367187 241.79792969 417.72734375 242.59585937 418.6171875 243.41796875 C436.19061202 260.23526669 448.6065192 285.4908609 449.25020635 310.07250309 C449.26037376 311.84193106 449.25997908 313.61144263 449.25053978 315.38087463 C449.25333746 316.3695281 449.25613513 317.35818156 449.25901759 318.37679422 C449.26594985 321.67386713 449.25873247 324.97075218 449.2515564 328.26782227 C449.25369608 330.66186139 449.25672233 333.05589986 449.26055682 335.44993687 C449.26691201 340.64695655 449.26714882 345.843939 449.26195335 351.0409584 C449.25428733 358.76924249 449.25818189 366.49749077 449.26457582 374.2257745 C449.27509085 387.23066887 449.27693551 400.23555028 449.27439499 413.240448 C449.27097461 431.82163678 449.28434922 450.40279311 449.30116946 468.98397316 C449.30784946 476.44454075 449.3139886 483.90510882 449.32012367 491.36567688 C449.32114967 492.60887687 449.32114967 492.60887687 449.32219639 493.87719201 C449.33836606 513.59423266 449.34920718 533.31127531 449.35839844 553.02832031 C449.35880447 553.89077898 449.35921051 554.75323764 449.35962884 555.64183141 C449.36905845 575.7678531 449.37592363 595.89387366 449.37835693 616.01989746 C449.3784635 616.88578795 449.37857006 617.75167844 449.37867985 618.64380803 C449.37921303 623.01021915 449.37972778 627.37663027 449.38024123 631.7430414 C449.38039454 633.03752936 449.38039454 633.03752936 449.38055095 634.35816859 C449.38075651 636.10003789 449.38095907 637.84190719 449.38115862 639.58377649 C449.38453956 668.36449599 449.40145079 697.1451829 449.43326016 725.92588544 C449.43773339 729.99029349 449.44202326 734.05470172 449.44618607 738.11911011 C449.44700652 738.91898423 449.44782698 739.71885835 449.4486723 740.54297108 C449.46141731 753.4118875 449.45942738 766.28076161 449.45155162 779.14968023 C449.44386771 792.08135128 449.45027389 805.01295189 449.47119068 817.94460893 C449.48315338 825.62534875 449.48393024 833.30590125 449.46869816 840.98663627 C449.4585401 846.7233126 449.46920569 852.45980034 449.48791118 858.19644821 C449.49221802 860.5159474 449.48976814 862.83547105 449.47987001 865.15495312 C449.10055686 881.07724317 449.10055686 881.07724317 454 896 C454.5775 897.0725 455.155 898.145 455.75 899.25 C461.92942145 906.80262622 469.32322085 912.05880833 479 914 C481.37329133 914.102037 483.74924089 914.14630708 486.12469482 914.15821838 C487.20175387 914.16562535 487.20175387 914.16562535 488.30057168 914.17318195 C490.70656371 914.18853993 493.11252908 914.19691296 495.51855469 914.20532227 C497.24326308 914.21490213 498.96796914 914.22491227 500.69267273 914.23532104 C505.37615581 914.26236447 510.05964896 914.2833771 514.74316692 914.30332303 C519.63724797 914.32518603 524.53129799 914.35257319 529.425354 914.37937927 C538.69356246 914.4293019 547.96178815 914.47424234 557.2300303 914.51740164 C567.78133335 914.56677767 578.33260528 914.62169445 588.88387823 914.67708123 C610.58922332 914.79089468 632.29459861 914.89753859 654 915 C654 920.61 654 926.22 654 932 C630.70364082 932.06950608 607.40730671 932.1230142 584.11086464 932.15543652 C573.29343761 932.17089223 562.47607627 932.191957 551.65869141 932.22631836 C542.22806611 932.25626035 532.79748839 932.27558442 523.36681688 932.28226548 C518.3753402 932.2861696 513.38399965 932.29531786 508.39256668 932.31719017 C503.68943956 932.33763115 498.98650397 932.34381845 494.28333664 932.33932304 C492.56209012 932.34014485 490.84083686 932.34606499 489.11962891 932.35761642 C472.30536308 932.46487642 458.69216858 929.11954562 446.06640625 917.26171875 C438.55606241 909.04151254 431.87954381 897.23815251 431.87284148 885.81661445 C431.86992944 884.98346596 431.86701741 884.15031747 431.86401713 883.29192206 C431.86683744 881.92400576 431.86683744 881.92400576 431.86971474 880.52845478 C431.86679959 879.06535144 431.86679959 879.06535144 431.86382556 877.57269046 C431.85847808 874.27853485 431.86027185 870.98442081 431.86196899 867.69026184 C431.85955214 865.31479031 431.85669026 862.93931919 431.85341966 860.56384867 C431.84727341 855.3855578 431.84420272 850.20727437 431.84379387 845.02898026 C431.84314962 837.32810247 431.83676022 829.6272371 431.82904707 821.92636352 C431.81696201 809.76402926 431.80830472 797.60169555 431.80200893 785.43935701 C431.79197627 766.12157345 431.77272221 746.80380756 431.75046654 727.4860346 C431.74193551 720.0530688 431.73366928 712.6201027 431.72536278 705.18713665 C431.72397526 703.9483149 431.72397526 703.9483149 431.72255972 702.68446644 C431.700561 683.01759206 431.68077525 663.3507157 431.66210938 643.68383789 C431.6612897 642.82317326 431.66047002 641.96250864 431.6596255 641.07576326 C431.6405526 621.00817254 431.62358974 600.94058192 431.61126709 580.87298584 C431.61073742 580.01069859 431.61020775 579.14841134 431.60966204 578.25999418 C431.60541067 571.31009651 431.60123425 564.36019879 431.59707724 557.41030107 C431.57986536 528.73309271 431.55263343 500.05590844 431.51391686 471.37872077 C431.50845531 467.32526699 431.50312228 463.27181305 431.49787521 459.21835899 C431.49632364 458.02176582 431.49632364 458.02176582 431.49474073 456.80099904 C431.47843858 443.98031521 431.47288836 431.1596483 431.47157755 418.3389551 C431.47007022 405.44105851 431.45787257 392.5432077 431.43482114 379.6453313 C431.42147784 371.99036227 431.41640091 364.33549332 431.4233675 356.68051527 C431.42766074 350.95206952 431.41626547 345.22373785 431.39897721 339.49532052 C431.39441967 337.18694735 431.39484729 334.87855745 431.40092559 332.57018778 C431.47052317 303.53418875 426.39771059 278.10246195 405.734375 256.5625 C395.43822238 246.91353412 383.09855855 240.5557179 370.80058289 233.83830261 C363.7541968 229.98926112 356.793373 226.01253305 349.875 221.9375 C341.80369218 217.191555 333.68185443 212.55273447 325.5 208 C316.27065229 202.86374835 307.12762875 197.59787376 298.01953125 192.25 C290.89471475 188.07755844 283.71446163 184.01518978 276.5 180 C267.34276685 174.90169076 258.2630683 169.68691945 249.22167969 164.38623047 C241.5920119 159.91721265 233.93022514 155.50638369 226.25 151.125 C225.3735231 150.62495453 225.3735231 150.62495453 224.4793396 150.11480713 C221.5080802 148.4199651 218.53636728 146.72592016 215.56445312 145.03222656 C210.28906705 142.02529256 205.01765562 139.01140383 199.74597168 135.99798584 C196.83081342 134.3317007 193.91539337 132.66587373 191 131 C189.83333208 130.33333552 188.66666541 129.66666886 187.5 129 C186.9225 128.67 186.345 128.34 185.75 128 C137.33333333 100.33333333 88.91666667 72.66666667 40.5 45 C39.63384064 44.50505287 39.63384064 44.50505287 38.75018311 44.00010681 C37.58290358 43.33308849 36.41562657 42.66606578 35.24835205 41.9990387 C32.34108255 40.33771651 29.43377028 38.67646925 26.52636719 37.01538086 C19.92537738 33.24390813 13.32529317 29.47086162 6.72709656 25.69450378 C3.71464843 23.97075969 0.70108342 22.24903315 -2.31518555 20.53198242 C-7.15665017 17.77483154 -11.9943186 15.01627265 -16.78515625 12.171875 C-36.02225375 0.83725644 -58.33862273 -3.96450058 -80.4375 1.5 C-96.92960679 6.09265986 -111.7285342 16.30075273 -126.43313599 24.79032898 C-130.65467436 27.22712863 -134.88291698 29.65180101 -139.1171875 32.06640625 C-139.69718506 32.39716156 -140.27718262 32.72791687 -140.87475586 33.06869507 C-142.04193378 33.73422297 -143.20912937 34.39971988 -144.37634277 35.06518555 C-153.93347052 40.51591739 -163.47339102 45.99609062 -173 51.5 C-185.46602223 58.70212794 -197.96361244 65.84829676 -210.46777344 72.98388672 C-215.7304792 75.98733176 -220.99117186 78.99429965 -226.25201416 82.00100708 C-229.16792672 83.66748282 -232.08396998 85.33372982 -235 87 C-236.16666729 87.66666557 -237.33333396 88.33333224 -238.5 89 C-296.25 122 -354 155 -441.5 205 C-442.07746979 205.32998489 -442.65493958 205.65996979 -443.24990845 205.99995422 C-444.41687278 206.66678662 -445.58384462 207.33360587 -446.75082397 208.00041199 C-449.66299806 209.66443532 -452.57504228 211.32868509 -455.48681641 212.9934082 C-461.39197395 216.36917874 -467.29938796 219.74090281 -473.2109375 223.10546875 C-479.05207919 226.43037458 -484.88548346 229.76848811 -490.71386719 233.11572266 C-492.86342915 234.34828723 -495.01504544 235.57727777 -497.16894531 236.80224609 C-523.58251327 251.8396734 -540.34917725 268.31033013 -549.46264648 297.88867188 C-550.98839928 303.88354247 -551.14207879 309.62878144 -551.12749195 315.77287292 C-551.12913578 316.75654675 -551.13077962 317.74022058 -551.13247326 318.7537027 C-551.13679964 322.06392473 -551.13400955 325.37410297 -551.13130188 328.68432617 C-551.13300374 331.07603617 -551.13515329 333.46774588 -551.13771313 335.85945511 C-551.14231401 341.06694955 -551.14385956 346.27443572 -551.14274788 351.48193169 C-551.14113753 359.22603965 -551.14530114 366.97013686 -551.15082836 374.71424264 C-551.15948022 386.9452676 -551.16484154 399.17629114 -551.16802987 411.40731864 C-551.17317334 430.8289309 -551.18864111 450.2505248 -551.20760635 469.67212799 C-551.21162782 473.80610923 -551.21554875 477.94009056 -551.21947271 482.07407188 C-551.22025536 482.89816972 -551.22103802 483.72226755 -551.22184439 484.57133805 C-551.22342997 486.24131093 -551.2250148 487.91128382 -551.22659888 489.5812567 C-551.22819016 491.25741902 -551.22978441 492.93358133 -551.23138161 494.60974364 C-551.25021281 514.37768583 -551.26729823 534.14562926 -551.28295898 553.91357422 C-551.2836479 554.77854988 -551.28433682 555.64352554 -551.28504662 556.53471258 C-551.30730321 584.57630796 -551.31914568 612.61789801 -551.32662554 640.65950079 C-551.33439321 669.4948254 -551.35546302 698.33011367 -551.39216815 727.16541652 C-551.39734165 731.23947876 -551.40234902 735.31354118 -551.40724754 739.38760376 C-551.4082145 740.18939126 -551.40918146 740.99117877 -551.41017772 741.81726287 C-551.42530884 754.71096373 -551.42621524 767.60462814 -551.42159041 780.49833544 C-551.41720243 793.46315866 -551.42714033 806.42790728 -551.45167748 819.3927086 C-551.46579721 827.09056225 -551.46883074 834.78823291 -551.45583495 842.48608953 C-551.44734564 848.24105221 -551.45975221 853.99582141 -551.4801239 859.75074732 C-551.48511379 862.07381198 -551.48339878 864.39690308 -551.47419123 866.71995485 C-551.40132116 886.67890366 -553.53168693 901.95203632 -567.5625 917.25 C-581.69411224 930.69747973 -599.53507643 932.4747755 -618.10302734 932.34057617 C-619.77009567 932.33972777 -621.43716511 932.3402092 -623.10423279 932.34190369 C-627.58476664 932.34275674 -632.06505455 932.32524413 -636.54553175 932.30418181 C-641.24466642 932.28529865 -645.94380809 932.28365547 -650.64297485 932.28010559 C-659.52134539 932.27081906 -668.39960376 932.2462517 -677.27792513 932.21605712 C-687.39412368 932.18240688 -697.51032788 932.16600051 -707.62656856 932.15097082 C-728.41777643 932.11969874 -749.20887716 932.06639341 -770 932 C-770 926.06 -770 920.12 -770 914 C-767.8821257 913.99635437 -765.7642514 913.99270874 -763.5821991 913.98895264 C-743.61572258 913.95269142 -723.64939599 913.8944583 -703.68303967 913.81609726 C-693.41832922 913.77633779 -683.15369509 913.74392959 -672.88891602 913.72900391 C-663.93905931 913.71597137 -654.98937076 913.6889658 -646.03960878 913.64538693 C-641.30353415 913.62280818 -636.56766665 913.60708717 -631.83153343 913.60811615 C-627.36710753 913.60886488 -622.90313886 913.59082887 -618.43883133 913.55883217 C-616.80672735 913.55036406 -615.17457189 913.5485621 -613.54245567 913.55419731 C-600.83889372 913.59219203 -589.59324784 912.13041571 -580 903 C-570.89121427 893.02173927 -569.83436182 882.16705541 -569.88533211 869.14558506 C-569.88507705 868.17738607 -569.884822 867.20918708 -569.88455921 866.21164873 C-569.88492007 862.96607418 -569.89245435 859.72055622 -569.89993286 856.47499084 C-569.90164511 854.12494145 -569.90290729 851.77489169 -569.90375793 849.42484182 C-569.90697022 843.64259902 -569.91481755 837.86037541 -569.92456834 832.07814025 C-569.93596935 825.15023894 -569.94146652 818.22233624 -569.94662625 811.29442791 C-569.95566481 799.28939021 -569.96815918 787.28435923 -569.98305158 775.27932747 C-570.00666907 756.21423602 -570.02095299 737.14914632 -570.03221822 718.08404397 C-570.03658762 710.74462245 -570.04122427 703.40520108 -570.04582024 696.06577969 C-570.04632876 695.2503623 -570.04683729 694.43494491 -570.04736123 693.5948179 C-570.05949337 674.18747807 -570.07385802 654.78014015 -570.08935547 635.37280273 C-570.09003063 634.52373355 -570.0907058 633.67466437 -570.09140142 632.79986581 C-570.10718677 612.99820623 -570.12510559 593.19655052 -570.14770508 573.39489746 C-570.14867635 572.54371287 -570.14964762 571.69252827 -570.15064832 570.8155502 C-570.15849487 563.95474614 -570.16641693 557.09394216 -570.17435859 550.2331382 C-570.20706969 521.92259731 -570.22966104 493.61206339 -570.24065296 465.30150544 C-570.2422176 461.30011386 -570.243912 457.29872234 -570.24569321 453.29733086 C-570.24604198 452.50987013 -570.24639075 451.7224094 -570.24675008 450.91108622 C-570.25267919 438.25797677 -570.26946398 425.60490403 -570.2905349 412.95181169 C-570.31153869 400.22469329 -570.32174557 387.49760309 -570.32099093 374.77046705 C-570.3208936 367.88033736 -570.32559469 360.99029433 -570.34415817 354.1001873 C-570.36070324 347.78531174 -570.3632381 341.47058711 -570.35490941 335.1556968 C-570.3543381 332.87838941 -570.35879925 330.60107363 -570.36897077 328.32378889 C-570.49863459 297.63125492 -564.00077461 269.43212299 -542.42724609 246.51611328 C-541.05912605 245.06280752 -539.72589278 243.57689674 -538.39453125 242.08984375 C-528.71596197 231.88266377 -515.93425619 225.75104277 -503.74169922 219.06445312 C-497.78271388 215.78900864 -491.89633776 212.38641862 -486 209 C-483.66738879 207.66540177 -481.33369421 206.33270335 -479 205 C-477.8333133 204.33336839 -476.66664663 203.66670173 -475.5 203 C-388.875 153.5 -388.875 153.5 -244.5 71 C-243.92251007 70.67000504 -243.34502014 70.34001007 -242.75003052 70.00001526 C-241.58326463 69.33329335 -240.41649624 68.66657582 -239.24972534 67.99986267 C-236.33455622 66.33407716 -233.41943053 64.66821573 -230.50439453 63.00219727 C-225.23656805 59.99159687 -219.96842441 56.98155853 -214.69866943 53.97433472 C-202.78423855 47.17522042 -190.87811196 40.36246827 -179 33.5 C-168.89389324 27.66129119 -158.77125055 21.85205193 -148.63232422 16.07055664 C-147.46320347 15.40383082 -146.29409543 14.73708271 -145.125 14.0703125 C-144.25368942 13.57340157 -144.25368942 13.57340157 -143.36477661 13.06645203 C-139.69941356 10.97449879 -136.03949459 8.87332404 -132.3833313 6.76533508 C-129.89582289 5.3314092 -127.40666238 3.90036404 -124.91741943 2.4694519 C-123.19743391 1.47920247 -121.47976767 0.48492792 -119.76220703 -0.50952148 C-97.70414403 -13.18008325 -97.70414403 -13.18008325 -86.0625 -15.875 C-85.27810547 -16.07351562 -84.49371094 -16.27203125 -83.68554688 -16.4765625 C-53.08805858 -24.04285869 -26.30326044 -15.41827937 0 0 Z " fill="#B39A57" transform="translate(770,19)"/>
<path d="M0 0 C9.9 0 19.8 0 30 0 C30 0.99 30 1.98 30 3 C28.865625 3.45375 27.73125 3.9075 26.5625 4.375 C22.95278308 5.57095806 22.95278308 5.57095806 22 8 C21.91599471 9.59447464 21.89272533 11.19240545 21.90234375 12.7890625 C21.90717773 14.20058594 21.90717773 14.20058594 21.91210938 15.640625 C21.92048828 16.62546875 21.92886719 17.6103125 21.9375 18.625 C21.94201172 19.61757813 21.94652344 20.61015625 21.95117188 21.6328125 C21.96297855 24.0886016 21.979446 26.54427104 22 29 C24.83963775 26.23463849 27.66923467 23.4594276 30.48999023 20.67480469 C31.9223772 19.26488559 33.36252195 17.86286206 34.80273438 16.4609375 C35.70185547 15.57148437 36.60097656 14.68203125 37.52734375 13.765625 C38.35999756 12.94868164 39.19265137 12.13173828 40.05053711 11.29003906 C41.94101371 9.06929135 42.63124482 7.84713302 43 5 C40.525 4.01 40.525 4.01 38 3 C38 2.01 38 1.02 38 0 C44.93 0 51.86 0 59 0 C59 0.99 59 1.98 59 3 C57.83984375 3.34160156 56.6796875 3.68320312 55.484375 4.03515625 C50.24568695 6.00254901 47.02018727 9.41673791 43.25 13.4375 C42.60417969 14.10587891 41.95835937 14.77425781 41.29296875 15.46289062 C40.05925675 16.74093519 38.83042007 18.02371104 37.60742188 19.31201172 C35.77049116 21.24101217 33.89541498 23.12851702 32 25 C32.60585938 25.71542969 33.21171875 26.43085937 33.8359375 27.16796875 C38.37399461 32.5647659 42.80685686 38.00251975 47.0625 43.625 C55.62995294 55.73295021 55.62995294 55.73295021 68 63 C68 63.66 68 64.32 68 65 C57.44 65 46.88 65 36 65 C36 64.34 36 63.68 36 63 C37.98 62.34 39.96 61.68 42 61 C41.52556606 56.2556606 39.29167045 53.33773918 36.375 49.75 C35.46607818 48.60552247 34.55722441 47.46099091 33.6484375 46.31640625 C33.19952148 45.75711426 32.75060547 45.19782227 32.28808594 44.62158203 C29.91700027 41.63660268 27.65599093 38.56583401 25.375 35.51171875 C24.92125 35.01285156 24.4675 34.51398437 24 34 C23.34 34 22.68 34 22 34 C21.97094076 37.7499837 21.95318126 41.49993837 21.9375 45.25 C21.92912109 46.31347656 21.92074219 47.37695312 21.91210938 48.47265625 C21.90888672 49.49746094 21.90566406 50.52226563 21.90234375 51.578125 C21.89710693 52.52075195 21.89187012 53.46337891 21.88647461 54.43457031 C21.99031918 56.78123437 22.33293471 58.75644478 23 61 C25.31 61.66 27.62 62.32 30 63 C30 63.66 30 64.32 30 65 C20.1 65 10.2 65 0 65 C0 64.34 0 63.68 0 63 C1.7015625 62.319375 1.7015625 62.319375 3.4375 61.625 C7.04721692 60.42904194 7.04721692 60.42904194 8 58 C8.10520167 56.41811155 8.14871548 54.83191615 8.16113281 53.24658203 C8.17074036 52.25860626 8.1803479 51.27063049 8.19024658 50.25271606 C8.19449646 49.18189789 8.19874634 48.11107971 8.203125 47.0078125 C8.20882507 45.91032684 8.21452515 44.81284119 8.22039795 43.68209839 C8.22985635 41.35692308 8.23638525 39.03173432 8.24023438 36.70654297 C8.24994118 33.14657242 8.28095778 29.58717874 8.3125 26.02734375 C8.31902974 23.77083677 8.32428033 21.51432565 8.328125 19.2578125 C8.3404718 18.19104279 8.3528186 17.12427307 8.36553955 16.025177 C8.36253845 15.03089691 8.35953735 14.03661682 8.35644531 13.01220703 C8.36009094 12.13887726 8.36373657 11.26554749 8.36749268 10.36575317 C7.91812598 7.47293174 7.00277295 6.10977123 5 4 C2.40144267 3.1957792 2.40144267 3.1957792 0 3 C0 2.01 0 1.02 0 0 Z " fill="#B39A57" transform="translate(697,877)"/>
<path d="M0 0 C4.2134451 -0.05006378 8.42672489 -0.08602769 12.64038086 -0.10986328 C14.06879702 -0.1198174 15.49719338 -0.13338562 16.92553711 -0.15087891 C40.43384642 -0.43123054 40.43384642 -0.43123054 48 6 C51.54720305 10.03647244 52.29765314 13.56612962 52.21875 18.94140625 C51.67784896 24.0316714 48.85443627 27.82575836 45 31 C42.25 32.25 42.25 32.25 40 33 C41.06734375 34.15435547 41.06734375 34.15435547 42.15625 35.33203125 C46.42113076 40.44538301 49.00831595 46.6101182 51.89453125 52.56445312 C52.58095703 53.93053711 52.58095703 53.93053711 53.28125 55.32421875 C53.68408203 56.15010498 54.08691406 56.97599121 54.50195312 57.8269043 C56.3020344 60.43813693 58.27775365 61.44292301 61 63 C61 63.66 61 64.32 61 65 C55.39 65 49.78 65 44 65 C43.12988281 62.97359375 43.12988281 62.97359375 42.2421875 60.90625 C41.45367141 59.10392751 40.66457801 57.30185752 39.875 55.5 C39.30652344 54.1696875 39.30652344 54.1696875 38.7265625 52.8125 C35.68924001 45.92790235 32.39338237 39.26225491 26 35 C24.34450469 34.61500109 22.6777567 34.27206865 21 34 C21.0811599 37.56341281 21.19397861 41.12514956 21.3125 44.6875 C21.33505859 45.69490234 21.35761719 46.70230469 21.38085938 47.74023438 C21.52248307 54.91238796 21.52248307 54.91238796 25 61 C28.07561246 62.35980881 28.07561246 62.35980881 31 63 C31 63.66 31 64.32 31 65 C20.77 65 10.54 65 0 65 C0 64.34 0 63.68 0 63 C1.7578125 62.38151042 3.515625 61.76302083 5.2734375 61.14453125 C7.84501661 59.43984193 8.11495065 57.97527229 9 55 C9.28007393 51.69776016 9.25640046 48.4099547 9.23046875 45.09765625 C9.23001053 44.14233505 9.22955231 43.18701385 9.2290802 42.20274353 C9.226065 40.18633784 9.21820066 38.16993433 9.20581055 36.15356445 C9.18758531 33.07690112 9.18530084 30.00053976 9.18554688 26.92382812 C9.18062985 24.96093491 9.17480073 22.99804373 9.16796875 21.03515625 C9.16685593 20.11936295 9.1657431 19.20356964 9.16459656 18.26002502 C9.13115364 13.7292877 8.91976921 9.45847231 8 5 C5.36 4.34 2.72 3.68 0 3 C0 2.01 0 1.02 0 0 Z M21 3 C21 12.57 21 22.14 21 32 C28.82857537 32.25379333 28.82857537 32.25379333 35 29 C38.50072761 24.83697257 39.90610728 21.44577796 40 16 C39.06984863 11.61264887 37.72853333 8.71032 34.5 5.5625 C29.53080315 2.45675197 27.50196745 3 21 3 Z " fill="#B39A57" transform="translate(778,877)"/>
<path d="M0 0 C16.5 0 33 0 50 0 C50.81235475 4.06177373 51.10732417 7.23350092 51.0625 11.3125 C51.05347656 12.38113281 51.04445313 13.44976563 51.03515625 14.55078125 C51.02355469 15.35902344 51.01195312 16.16726563 51 17 C50.34 17 49.68 17 49 17 C48.65388672 16.20335937 48.65388672 16.20335937 48.30078125 15.390625 C46.19390541 10.82711528 44.38671664 7.7416979 40 5 C36.19931661 3.7212654 32.22208243 3.66679047 28.25 3.4375 C25.8575 3.293125 23.465 3.14875 21 3 C21 11.58 21 20.16 21 29 C31.15895926 28.12779681 31.15895926 28.12779681 34.5625 24.75 C36.0607415 21.88379887 37.13109422 19.11357906 38 16 C38.66 16 39.32 16 40 16 C40 25.9 40 35.8 40 46 C39.01 46 38.02 46 37 46 C36.7525 44.7625 36.505 43.525 36.25 42.25 C35.24412784 38.40321865 34.45314473 36.24454407 31 34 C29.29302285 33.58148211 27.57180976 33.21896471 25.84375 32.8984375 C24.93818359 32.72747559 24.03261719 32.55651367 23.09960938 32.38037109 C22.40673828 32.25484863 21.71386719 32.12932617 21 32 C21.08154456 35.52173396 21.19432644 39.04181983 21.3125 42.5625 C21.33505859 43.55314453 21.35761719 44.54378906 21.38085938 45.56445312 C21.59375745 51.39011858 22.06455254 55.9045063 25 61 C28.05181069 62.51973152 28.05181069 62.51973152 31 63 C31 63.66 31 64.32 31 65 C20.77 65 10.54 65 0 65 C0 64.34 0 63.68 0 63 C2.64 62.34 5.28 61.68 8 61 C8.81730555 57.73077781 9.13880557 55.40758764 9.17700195 52.11132812 C9.18983719 51.14352417 9.20267242 50.17572021 9.21589661 49.17858887 C9.22328354 48.13996704 9.23067047 47.10134521 9.23828125 46.03125 C9.246353 44.95879028 9.25442474 43.88633057 9.26274109 42.78137207 C9.27655976 40.51523446 9.2872918 38.24907622 9.29516602 35.98291016 C9.31243555 32.51294975 9.35634878 29.04392841 9.40039062 25.57421875 C9.41051302 23.37240283 9.41903054 21.17057883 9.42578125 18.96875 C9.45204338 17.41081726 9.45204338 17.41081726 9.47883606 15.82141113 C9.55298866 10.23373628 9.55298866 10.23373628 7.14526367 5.36132812 C4.74077257 3.83550107 2.81780044 3.31308894 0 3 C0 2.01 0 1.02 0 0 Z " fill="#B39A57" transform="translate(933,877)"/>
<path d="M0 0 C1.44274594 0.48465493 2.88252103 0.97887968 4.3125 1.5 C4.3125 0.84 4.3125 0.18 4.3125 -0.5 C4.9725 -0.5 5.6325 -0.5 6.3125 -0.5 C7.19527755 4.01815281 7.41839503 8.27512694 7.375 12.875 C7.36597656 14.12023437 7.35695313 15.36546875 7.34765625 16.6484375 C7.33605469 17.58945312 7.32445312 18.53046875 7.3125 19.5 C6.3225 19.17 5.3325 18.84 4.3125 18.5 C2.93108072 15.5544576 1.88553707 12.54239263 0.7890625 9.48046875 C-0.89604864 6.07904071 -2.54720606 4.58379195 -5.6875 2.5 C-9.48343702 1.28853074 -11.17312707 1.31205604 -14.9375 2.6875 C-18.35457284 4.88430312 -18.35457284 4.88430312 -19.6875 8.5 C-19.78946526 12.67311636 -19.78946526 12.67311636 -18.6875 16.5 C-14.60065543 20.45778632 -10.33079052 22.85372128 -5.25 25.3125 C1.48631036 28.72093822 6.84445526 32.56391053 10.3125 39.5 C11.2985026 53.2281901 11.2985026 53.2281901 7.3125 58.5 C2.28913942 63.86084734 -2.43595913 66.28355792 -9.91015625 66.6640625 C-14.08307003 66.48281909 -17.63774534 65.65822118 -21.625 64.5 C-22.65077148 64.21382812 -22.65077148 64.21382812 -23.69726562 63.921875 C-25.36294526 63.45595063 -27.02556675 62.97911589 -28.6875 62.5 C-28.6875 63.16 -28.6875 63.82 -28.6875 64.5 C-29.3475 64.5 -30.0075 64.5 -30.6875 64.5 C-30.6875 57.9 -30.6875 51.3 -30.6875 44.5 C-30.0275 44.5 -29.3675 44.5 -28.6875 44.5 C-28.45675781 45.15226563 -28.22601562 45.80453125 -27.98828125 46.4765625 C-25.63291718 52.78856581 -23.38307978 57.78990816 -17.8125 61.875 C-14.58504484 62.82425152 -12.03734219 62.8465354 -8.6875 62.5 C-4.44721381 60.2412063 -4.44721381 60.2412063 -1.6875 56.5 C-1.41281734 54.26482384 -1.41281734 54.26482384 -1.375 51.75 C-1.33761719 50.90953125 -1.30023437 50.0690625 -1.26171875 49.203125 C-1.86193448 45.39258111 -3.20915763 43.45600077 -5.6875 40.5 C-8.18807841 38.75963972 -10.83915922 37.41934784 -13.5625 36.0625 C-20.18110558 32.57179949 -25.21324348 29.44851304 -28.6875 22.5 C-29.21486173 16.29335808 -29.44997482 10.71891668 -25.6875 5.5 C-17.80541012 -2.23612525 -10.7107826 -3.23920957 0 0 Z " fill="#B39A57" transform="translate(549.6875,877.5)"/>
<path d="M0 0 C21.12 0 42.24 0 64 0 C64.66396147 6.63961468 65.10551806 12.45788013 65 19 C64.34 19 63.68 19 63 19 C62.67386719 18.31292969 62.34773438 17.62585938 62.01171875 16.91796875 C61.57472656 16.01691406 61.13773438 15.11585938 60.6875 14.1875 C60.25824219 13.29417969 59.82898437 12.40085937 59.38671875 11.48046875 C57.35155421 7.84010401 55.92115856 6.34543446 52 4.875 C48.77053684 4.03916939 45.57033723 3.72694825 42.25 3.4453125 C41.26515625 3.36039551 40.2803125 3.27547852 39.265625 3.18798828 C38.51796875 3.12595215 37.7703125 3.06391602 37 3 C37.06714547 10.13534495 37.15700958 17.27014825 37.26245117 24.4050293 C37.29564466 26.83074498 37.32369384 29.25653686 37.34643555 31.68237305 C37.38008331 35.17529684 37.43240631 38.66752585 37.48828125 42.16015625 C37.49467117 43.23959 37.5010611 44.31902374 37.50764465 45.4311676 C37.62211048 51.33269479 37.98882955 55.85292243 41 61 C44.05181069 62.51973152 44.05181069 62.51973152 47 63 C47 63.66 47 64.32 47 65 C36.77 65 26.54 65 16 65 C16 64.34 16 63.68 16 63 C17.11375 62.566875 18.2275 62.13375 19.375 61.6875 C23.17512334 60.30088881 23.17512334 60.30088881 25 57 C25.3280304 54.51562053 25.3280304 54.51562053 25.31884766 51.70239258 C25.33871735 50.62149857 25.35858704 49.54060455 25.37905884 48.42695618 C25.39061005 47.26125595 25.40216125 46.09555573 25.4140625 44.89453125 C25.43342865 43.70018967 25.4527948 42.50584808 25.4727478 41.27531433 C25.53260616 37.45444924 25.57895454 33.63355413 25.625 29.8125 C25.66317397 27.22459612 25.70222535 24.63670501 25.7421875 22.04882812 C25.83831291 15.69933209 25.92334218 9.34975928 26 3 C23.60182921 3.2564082 21.20756272 3.5295484 18.8125 3.8125 C18.13896484 3.88275391 17.46542969 3.95300781 16.77148438 4.02539062 C12.50655945 4.54550342 9.45482314 5.42257309 6 8 C4.60687543 10.15596119 4.60687543 10.15596119 3.75 12.5625 C3.27820313 13.74005859 3.27820313 13.74005859 2.796875 14.94140625 C2.53390625 15.62074219 2.2709375 16.30007813 2 17 C1.67 17.66 1.34 18.32 1 19 C0.34 19 -0.32 19 -1 19 C-1.02779013 17.52094768 -1.04673956 16.04172942 -1.0625 14.5625 C-1.07410156 13.73878906 -1.08570313 12.91507813 -1.09765625 12.06640625 C-0.96909904 8.02970977 -0.44600456 4.01404103 0 0 Z " fill="#B39A57" transform="translate(998,877)"/>
<path d="M0 0 C3.19316509 0.2177158 4.93615534 0.02128155 8 -1 C8.33 6.26 8.66 13.52 9 21 C8.01 21 7.02 21 6 21 C5.731875 20.21496094 5.46375 19.42992187 5.1875 18.62109375 C2.50637475 11.43320863 -0.17463461 5.91826532 -7 2 C-12.21110228 0.190037 -16.94556317 0.99729861 -22 3 C-28.68080872 7.13573873 -31.79236505 13.49629111 -33.8125 20.875 C-36.18805868 31.60550652 -35.65142587 41.58853635 -30.3125 51.3125 C-26.7934979 56.76018594 -23.75267107 59.19138195 -17.42578125 60.5546875 C-11.10833094 61.41816049 -5.68432354 61.03796832 0 58 C4.21856412 54.22549526 5.47652351 49.29754326 7 44 C7.99 44 8.98 44 10 44 C8.28941786 55.3888758 8.28941786 55.3888758 4 60 C-5.08426109 65.65652806 -13.93425766 67.21539113 -24.4375 65.375 C-32.3870163 63.37372317 -39.2575299 59.03346777 -43.81640625 52.17578125 C-48.83820301 42.94429348 -49.66547198 31.98644142 -47.23828125 21.8046875 C-44.27879617 13.21867151 -40.00370999 6.11148796 -31.75390625 1.8359375 C-21.49895681 -2.84530379 -10.79069888 -3.67342941 0 0 Z " fill="#B39A57" transform="translate(409,878)"/>
<path d="M0 0 C1.32 0 2.64 0 4 0 C4.22248917 0.54520294 4.44497833 1.09040588 4.67420959 1.65213013 C7.02063703 7.39887776 9.37478302 13.14242127 11.7331543 18.88427734 C12.60877922 21.01890457 13.48252513 23.15430368 14.35424805 25.29052734 C17.18173411 32.21730044 20.05260609 39.12333124 23 46 C23.33167175 46.77855347 23.66334351 47.55710693 24.00506592 48.35925293 C24.8697577 50.35547962 25.76680004 52.33195708 26.68359375 54.3046875 C27.1623999 55.35382324 27.64120605 56.40295898 28.13452148 57.48388672 C30.68385832 60.92237193 32.99461256 61.6083454 37 63 C37 63.66 37 64.32 37 65 C26.77 65 16.54 65 6 65 C6 64.34 6 63.68 6 63 C8.31 62.01 10.62 61.02 13 60 C12.5949396 53.72156378 11.3730678 48.82701183 8.83984375 43.06640625 C8 41 8 41 8 39 C1.4 39 -5.2 39 -12 39 C-12.33 40.65 -12.66 42.3 -13 44 C-13.49293313 45.30256941 -14.01291942 46.5953003 -14.5625 47.875 C-16.03204469 51.70450317 -16.48587841 54.87003354 -16 59 C-14.16884793 61.61593153 -13.09031634 61.96989455 -10 63 C-10 63.66 -10 64.32 -10 65 C-17.26 65 -24.52 65 -32 65 C-32 64.34 -32 63.68 -32 63 C-31.113125 62.649375 -30.22625 62.29875 -29.3125 61.9375 C-21.79913847 57.54289231 -19.34059504 49.51426889 -16.42578125 41.73828125 C-16.01587448 40.67006638 -15.60596771 39.6018515 -15.18363953 38.50126648 C-13.88377441 35.10854458 -12.59767638 31.71080988 -11.3125 28.3125 C-10.0138295 24.90460201 -8.71235048 21.49779548 -7.40922546 18.09159851 C-6.60134154 15.97710839 -5.79654579 13.86143517 -4.99519348 11.74446106 C-4.63108871 10.78634018 -4.26698395 9.8282193 -3.8918457 8.84106445 C-3.57383499 8.0005806 -3.25582428 7.16009674 -2.92817688 6.29414368 C-2.05304515 4.13110991 -1.07516501 2.06974892 0 0 Z M-3 16 C-5.64 22.93 -8.28 29.86 -11 37 C-5.06 37 0.88 37 7 37 C4.36 30.07 1.72 23.14 -1 16 C-1.66 16 -2.32 16 -3 16 Z " fill="#B39A57" transform="translate(882,877)"/>
<path d="M0 0 C1.95025635 0.23123169 1.95025635 0.23123169 4 1 C5.40886462 3.58904731 6.52802445 6.01805034 7.609375 8.7421875 C7.93987854 9.53916046 8.27038208 10.33613342 8.61090088 11.15725708 C9.67166921 13.72418664 10.71116277 16.29912736 11.75 18.875 C12.43348146 20.54094556 13.11836378 22.20631711 13.8046875 23.87109375 C15.17945576 27.21146205 16.55000738 30.55350059 17.91601562 33.89746094 C18.25705322 34.73192749 18.59809082 35.56639404 18.94946289 36.42614746 C19.66553339 38.18054516 20.38015513 39.93553471 21.09350586 41.69104004 C22.16441281 44.32052667 23.24522105 46.94574779 24.328125 49.5703125 C24.65262634 50.37346893 24.97712769 51.17662537 25.3114624 52.00411987 C25.62021301 52.74799957 25.92896362 53.49187927 26.24707031 54.25830078 C26.51400696 54.91049591 26.7809436 55.56269104 27.05596924 56.23464966 C28.86594654 59.61933179 30.58690143 60.84610053 34.1875 62.1875 C35.115625 62.455625 36.04375 62.72375 37 63 C37 63.66 37 64.32 37 65 C26.77 65 16.54 65 6 65 C6 64.34 6 63.68 6 63 C7.98 62.34 9.96 61.68 12 61 C13.88807583 54.60958951 11.88329062 50.585921 9.12890625 44.671875 C8 42 8 42 8 39 C1.4 39 -5.2 39 -12 39 C-13.01720653 42.32903954 -14.01551578 45.66131437 -15 49 C-15.23589844 49.76054688 -15.47179687 50.52109375 -15.71484375 51.3046875 C-16.54858561 54.19281288 -17.13903717 56.41295418 -16.4375 59.375 C-14.5536543 61.5045647 -12.68041765 62.15355232 -10 63 C-10 63.66 -10 64.32 -10 65 C-17.26 65 -24.52 65 -32 65 C-32 64.34 -32 63.68 -32 63 C-30.6696875 62.505 -30.6696875 62.505 -29.3125 62 C-22.68500488 57.99849351 -20.08310126 50.35982363 -17.40625 43.36328125 C-17.09224243 42.56198288 -16.77823486 41.76068451 -16.45471191 40.93510437 C-15.46221203 38.39712055 -14.48094662 35.85496831 -13.5 33.3125 C-12.84318344 31.62796824 -12.18563654 29.94372105 -11.52734375 28.25976562 C-9.14639067 22.15898371 -6.77653303 16.05411151 -4.453125 9.93115234 C-4.00453125 8.75117676 -3.5559375 7.57120117 -3.09375 6.35546875 C-2.70896484 5.33477295 -2.32417969 4.31407715 -1.92773438 3.26245117 C-1 1 -1 1 0 0 Z M-3 15 C-4.33600613 18.47814628 -5.66835642 21.95768139 -7 25.4375 C-7.3815625 26.43072266 -7.763125 27.42394531 -8.15625 28.44726562 C-8.5171875 29.39150391 -8.878125 30.33574219 -9.25 31.30859375 C-9.58515625 32.18314209 -9.9203125 33.05769043 -10.265625 33.95874023 C-11.0564207 35.79526915 -11.0564207 35.79526915 -11 37 C-5.39 37 0.22 37 6 37 C5.29836166 33.49180831 4.7077252 30.97658183 3.37109375 27.79296875 C3.05849609 27.04208984 2.74589844 26.29121094 2.42382812 25.51757812 C1.9355957 24.36418945 1.9355957 24.36418945 1.4375 23.1875 C1.10814453 22.39923828 0.77878906 21.61097656 0.43945312 20.79882812 C-0.36958906 18.86416204 -1.18423852 16.93184247 -2 15 C-2.33 15 -2.66 15 -3 15 Z " fill="#B39A57" transform="translate(608,877)"/>
<path d="M0 0 C1.32 0 2.64 0 4 0 C4.61089478 1.51630005 4.61089478 1.51630005 5.23413086 3.06323242 C14.61514228 26.39625064 14.61514228 26.39625064 24.25 49.625 C24.59538818 50.45668701 24.94077637 51.28837402 25.29663086 52.14526367 C26.80387583 55.67432074 28.05967784 58.50460689 31 61 C34.10007201 62.20049407 34.10007201 62.20049407 37 63 C37 63.66 37 64.32 37 65 C26.77 65 16.54 65 6 65 C6 64.34 6 63.68 6 63 C8.31 62.01 10.62 61.02 13 60 C12.5949396 53.72156378 11.3730678 48.82701183 8.83984375 43.06640625 C8 41 8 41 8 39 C1.4 39 -5.2 39 -12 39 C-12.474375 40.588125 -12.94875 42.17625 -13.4375 43.8125 C-14.25720605 46.55673329 -15.09422494 49.28267481 -16 52 C-16.06665376 53.39439664 -16.08538199 54.79169875 -16.0625 56.1875 C-16.041875 57.445625 -16.02125 58.70375 -16 60 C-14.02 60.99 -12.04 61.98 -10 63 C-10 63.66 -10 64.32 -10 65 C-17.26 65 -24.52 65 -32 65 C-32 64.34 -32 63.68 -32 63 C-30.6696875 62.505 -30.6696875 62.505 -29.3125 62 C-21.89125669 57.51924932 -19.31248379 48.38060868 -16.3125 40.625 C-15.8904126 39.55314453 -15.4683252 38.48128906 -15.03344727 37.37695312 C-11.33858973 27.96417224 -7.71877306 18.52091764 -4.13598633 9.06494141 C-3.73919678 8.02257324 -3.34240723 6.98020508 -2.93359375 5.90625 C-2.58353271 4.98134766 -2.23347168 4.05644531 -1.87280273 3.10351562 C-1 1 -1 1 0 0 Z M-3 15 C-5.64 22.26 -8.28 29.52 -11 37 C-5.06 37 0.88 37 7 37 C5.71459 33.7057632 4.42201622 30.41466398 3.125 27.125 C2.57779297 25.71927734 2.57779297 25.71927734 2.01953125 24.28515625 C1.66503906 23.38925781 1.31054688 22.49335937 0.9453125 21.5703125 C0.62062988 20.74289551 0.29594727 19.91547852 -0.03857422 19.06298828 C-0.93089728 16.84094923 -0.93089728 16.84094923 -3 15 Z " fill="#B39A57" transform="translate(465,877)"/>
</svg>
